# xmcd
#
# Track frame offsets:
#	150
#	21856
#	43658
#	68784
#	85958
#	115427
#	141109
#	160638
#	181779
#	203161
#	226087
#	254064
#	276123
#	294332
#	313636
#
# Disc length: 4491 seconds
#
# Revision: 0
# Processed by: cddbd v1.4b42PL0 Copyright (c) Steve Scherf et al.
# Submitted via: EasyCDDAExtractor 4.5.0.1
#
DISCID=d111890f
DTITLE=George Michael - The best of George Michael
DYEAR=2000
DGENRE=Vocal
TTITLE0=Outside
TTITLE1=As
TTITLE2=Fast Love
TTITLE3=Too Funky
TTITLE4=Freedom 90
TTITLE5=Star People '97
TTITLE6=Killer (papa Was A Rolling Stone)
TTITLE7=I Want Your Sex
TTITLE8=Spinning Wheel
TTITLE9=Monkey
TTITLE10=Spinning Wheel
TTITLE11=Hard Day
TTITLE12=I Knew You Were Waiting (4 Me)
TTITLE13=Faith
TTITLE14=Somebody To Love
EXTD=
EXTT0=
EXTT1=
EXTT2=
EXTT3=
EXTT4=
EXTT5=
EXTT6=
EXTT7=
EXTT8=
EXTT9=
EXTT10=
EXTT11=
EXTT12=
EXTT13=
EXTT14=
PLAYORDER=
